# xmcd
#
# Track frame offsets: 
#        150
#        11980
#        46725
#        64649
#        77294
#        91073
#        105031
#        131005
#        153279
#        173621
#        192159
#        216042
#        232009
#        246561
#
# Disc length: 3588 seconds
#
# Revision: 0
# Processed by: cddbd v1.5.2PL0 Copyright (c) Steve Scherf et al.
# Submitted via: ExactAudioCopy v0.99pb5
#
DISCID=a50e020e
DTITLE=Northern Lights and Vassar Clements - Live: Three August Nights
DYEAR=2000
DGENRE=Bluegrass
TTITLE0=Goodbye Old Paint
TTITLE1=Midnight Moonlight
TTITLE2=John Hardy
TTITLE3=Hold Whatcha Got
TTITLE4=Dixie Breakdown
TTITLE5=Kinfolks in Carolina
TTITLE6=Rainmaker
TTITLE7=Northern Rail
TTITLE8=Wild Horses
TTITLE9=Got the Spirit
TTITLE10=Can't Buy Your Way
TTITLE11=Heartache Tonight
TTITLE12=Dueling Banjos
TTITLE13=T for Texas
EXTD=
EXTT0=
EXTT1=
EXTT2=
EXTT3=
EXTT4=
EXTT5=
EXTT6=
EXTT7=
EXTT8=
EXTT9=
EXTT10=
EXTT11=
EXTT12=
EXTT13=
PLAYORDER=
